<?xml version="1.0" encoding="UTF-8" standalone="no"?>
<svg xmlns:rdf="http://www.w3.org/1999/02/22-rdf-syntax-ns#" xmlns="http://www.w3.org/2000/svg" xml:space="preserve" height="641.7" viewBox="0 0 844.375 641.73633" width="844.4" version="1.1" xmlns:cc="http://creativecommons.org/ns#" xmlns:dc="http://purl.org/dc/elements/1.1/"><defs><clipPath id="c" clipPathUnits="userSpaceOnUse"><path clip-rule="evenodd" d="m290.5 337.7c-14.8 0-26.8 8-26.8 17.9 0 10 12 18 26.8 18s26.7-8 26.7-18c0-9.9-11.9-17.9-26.7-17.9zm4.1 28.9c-11.3 0-20.4-5.5-20.4-12.3s9.1-12.3 20.4-12.3c11.2 0 19.5 3.8 19.5 12.3s-8.3 12.3-19.5 12.3z"/></clipPath><clipPath id="b" clipPathUnits="userSpaceOnUse"><path clip-rule="evenodd" d="m304.5 345.8s1.6-0.5 2.5-1c0.4-0.1 1-0.5 1.3-0.8 0.4-0.5 0.7-0.9 0.7-0.9l6.3-10.8h-10.3l-4.8 9s-1 1.7-1.6 2.2c-0.5 0.5-0.8 0.6-1.3 0.6h-2.3v-11.8h-9.3v30.1h18.4s8.4-0.1 8.4-8.1c0-7.9-8-8.5-8-8.5zm-4 10.2h-5.5v-5.2h5.5s2.6 0 2.6 2.6-2.6 2.6-2.6 2.6z"/></clipPath><clipPath id="a" clipPathUnits="userSpaceOnUse"><path clip-rule="evenodd" d="m0-0.2h765.3v595.2h-765.3v-595.2z"/></clipPath></defs><g transform="matrix(1.25 0 0 -1.25 -34.88 676.4)"><path d="m292 215.2h-263.7v99.2h527.3v-99.2h-263.6z" fill-rule="evenodd" fill="#069"/><path stroke-linejoin="round" d="m292 215.2h-263.7v99.2h527.3v-99.2h-263.6z" stroke="#000" stroke-miterlimit="10" stroke-width="0.8" fill="none"/><text transform="matrix(1,0,0,-1,35.4,258.5)" font-size="18px" font-family="&apos;Liberation Sans&apos;" fill="#000000"><tspan y="0" x="0 11.988 21.996 30.996 39.995998 50.004002 59.903999 69.912003">Packages</tspan></text>
<text transform="matrix(1,0,0,-1,267.8,520.8)" font-size="28px" font-family="&apos;Liberation Sans&apos;" fill="#000000"><tspan y="0" x="0 18.591999 32.48 46.48 54.264 69.832001 93.295998 101.08 122.864 136.864 152.43201 161.812 175.812 182 197.56799">System Overview</tspan></text>
<path d="m292 388.1h-263.7v113.4h527.3v-113.4h-263.6z" fill-rule="evenodd" fill="#f90"/><path stroke-linejoin="round" d="m292 388.1h-263.7v113.4h527.3v-113.4h-263.6z" stroke="#000" stroke-miterlimit="10" stroke-width="0.8" fill="none"/><text transform="matrix(1,0,0,-1,35.4,448.6)" font-size="18px" font-family="&apos;Liberation Sans&apos;" fill="#000000"><tspan y="0" x="0 5.0760002 14.976 20.052 29.952 39.959999 45.953999 55.962002 60.948002 70.956001 80.856003 85.931999 98.837997 108.846 117.846 127.746 131.742 141.75 151.64999 166.644 176.65199 186.552">Integrated Development</tspan></text>
<text transform="matrix(1,0,0,-1,35.4,428.4)" font-size="18px" font-family="&apos;Liberation Sans&apos;" fill="#000000"><tspan y="0" x="0 11.988 21.996 30.996 34.992001 40.986 50.886002 60.894001 75.888 85.788002 95.795998 100.782 105.858 111.852 116.838 129.834 141.82201">Environment (IDE)</tspan></text>
<path d="m426.6 495.8c37.8 0 66.6-22.1 66.6-51s-28.8-51-66.6-51c-37.7 0-66.6 22.1-66.6 51s28.9 51 66.6 51zm-66.6 0zm133.3-102.1z" fill-rule="evenodd" fill="#ccc"/><path stroke-linejoin="round" d="m426.6 495.8c37.8 0 66.6-22.1 66.6-51s-28.8-51-66.6-51c-37.7 0-66.6 22.1-66.6 51s28.9 51 66.6 51z" stroke="#000" stroke-miterlimit="10" stroke-width="0.8" fill="none"/><path stroke-linejoin="round" d="m360 495.8z" stroke="#000" stroke-miterlimit="10" stroke-width="0.8" fill="none"/><path stroke-linejoin="round" d="m493.3 393.7z" stroke="#000" stroke-miterlimit="10" stroke-width="0.8" fill="none"/><text transform="matrix(1,0,0,-1,392.2,458.7)" font-size="18px" font-family="&apos;Liberation Sans&apos;" fill="#000000"><tspan y="0" x="0 12.906 24.893999 29.969999 39.869999 49.877998 53.874001 63.773998">RStudio,</tspan></text>
<text transform="matrix(1,0,0,-1,390.5,438.5)" font-size="18px" font-family="&apos;Liberation Sans&apos;" fill="#000000"><tspan y="0" x="0 12.996 24.983999 41.292 51.299999 57.203999 67.211998">RKWard,</tspan></text>
<text transform="matrix(1,0,0,-1,389,418.3)" font-size="18px" font-family="&apos;Liberation Sans&apos;" fill="#000000"><tspan y="0" x="0 12.996 17.982 31.968 44.964001 49.950001 55.026001 60.012001 65.087997 70.073997">R GUI, ...</tspan></text>
<path d="m292 314.4h-263.7v73.7h527.3v-73.7h-263.6z" fill-rule="evenodd" fill="#007826"/><path stroke-linejoin="round" d="m292 314.4h-263.7v73.7h527.3v-73.7h-263.6z" stroke="#000" stroke-miterlimit="10" stroke-width="0.8" fill="none"/><text transform="matrix(1,0,0,-1,35.4,345)" font-size="18px" font-family="&apos;Liberation Sans&apos;" fill="#000000"><tspan y="0" x="0 11.988 21.996 32.004002 35.91 45.917999">Engine</tspan></text>
<path d="m292 158.5h-263.7v56.7h527.3v-56.7h-263.6z" fill-rule="evenodd" fill="#729fcf"/><path stroke-linejoin="round" d="m292 158.5h-263.7v56.7h527.3v-56.7h-263.6z" stroke="#000" stroke-miterlimit="10" stroke-width="0.8" fill="none"/><text transform="matrix(1,0,0,-1,35.4,180.5)" font-size="18px" font-family="&apos;Liberation Sans&apos;" fill="#000000"><tspan y="0" x="0 11.988 15.984 25.884001 35.891998 39.888 49.787998 59.796001">Bindings</tspan></text>
<path d="m292 28.1h-263.7v130.4h527.3v-130.4h-263.6z" fill-rule="evenodd" fill="#7e0021"/><path stroke-linejoin="round" d="m292 28.1h-263.7v130.4h527.3v-130.4h-263.6z" stroke="#000" stroke-miterlimit="10" stroke-width="0.8" fill="none"/><text transform="matrix(1,0,0,-1,35.4,87)" font-size="18px" font-family="&apos;Liberation Sans&apos;" fill="#ffffff"><tspan y="0" x="0 10.008 14.004 23.903999 29.898001 39.905998 45.900002 49.806 59.813999">Libraries</tspan></text>
<path d="m643.5 331.4c27.3 0 48.2-11 48.2-25.5s-20.9-25.5-48.2-25.5c-27.4 0-48.2 11-48.2 25.5s20.8 25.5 48.2 25.5zm-48.2 0zm96.4-51.1z" fill-rule="evenodd" fill="#ccc"/><path stroke-linejoin="round" d="m643.5 331.4c27.3 0 48.2-11 48.2-25.5s-20.9-25.5-48.2-25.5c-27.4 0-48.2 11-48.2 25.5s20.8 25.5 48.2 25.5z" stroke="#000" stroke-miterlimit="10" stroke-width="0.8" fill="none"/><path stroke-linejoin="round" d="m595.3 331.4z" stroke="#000" stroke-miterlimit="10" stroke-width="0.8" fill="none"/><path stroke-linejoin="round" d="m691.7 280.3z" stroke="#000" stroke-miterlimit="10" stroke-width="0.8" fill="none"/><path d="m594.6 426c-2.2 10.2 8.1 19.8 18.4 19.8 3.2 0.1 6.6-0.9 9.3-2.4 2.7 4.6 7.6 7.4 13.1 7.4 3.7-0.1 7.6-1.5 10.3-4 2 4.1 6.2 6.5 10.7 6.5 3.8 0 7.3-1.8 9.5-4.4 2.5 2.7 6.3 4.4 10.3 4.4 6.5 0 11.9-4.3 13.1-10.3 6.2-1.7 10.7-7.2 10.7-13.4 0-1.9-0.3-3.7-1.2-5.5 2.6-3 4.2-6.8 4.2-10.6 0-8.8-7.1-16.1-16.3-17.4 0-8.3-7-14.9-15.8-14.9-3.1 0-5.9 0.9-8.5 2.4-2.3-7.4-9.6-12.6-17.8-12.6-6.2 0-11.9 3.1-15.4 8-3.3-1.9-1.6-3-10.9-3-7.6 0-14.7 3.9-18.4 10.1-8.8 0.2-13.3 5.1-13.3 11.4 0 2.9 1.1 5.5 3.2 7.7-3.8 1.8-5.9 5.4-5.9 9.5 0 5.9 4.7 10.7 10.7 11.3zm-10.7 27.3zm119.1-82.3z" fill-rule="evenodd" fill="#ccc"/><path stroke-linejoin="round" d="m594.6 426c-2.2 10.2 8.1 19.8 18.4 19.8 3.2 0.1 6.6-0.9 9.3-2.4 2.7 4.6 7.6 7.4 13.1 7.4 3.7-0.1 7.6-1.5 10.3-4 2 4.1 6.2 6.5 10.7 6.5 3.8 0 7.3-1.8 9.5-4.4 2.5 2.7 6.3 4.4 10.3 4.4 6.5 0 11.9-4.3 13.1-10.3 6.2-1.7 10.7-7.2 10.7-13.4 0-1.9-0.3-3.7-1.2-5.5 2.6-3 4.2-6.8 4.2-10.6 0-8.8-7.1-16.1-16.3-17.4 0-8.3-7-14.9-15.8-14.9-3.1 0-5.9 0.9-8.5 2.4-2.3-7.4-9.6-12.6-17.8-12.6-6.2 0-11.9 3.1-15.4 8-3.3-1.9-1.6-3-10.9-3-7.6 0-14.7 3.9-18.4 10.1-8.8 0.2-13.3 5.1-13.3 11.4 0 2.9 1.1 5.5 3.2 7.7-3.8 1.8-5.9 5.4-5.9 9.5 0 5.9 4.7 10.7 10.7 11.3z" stroke="#000" stroke-miterlimit="10" stroke-width="0.8" fill="none"/><path stroke-linejoin="round" d="m583.9 453.3z" stroke="#000" stroke-miterlimit="10" stroke-width="0.8" fill="none"/><path stroke-linejoin="round" d="m703 371z" stroke="#000" stroke-miterlimit="10" stroke-width="0.8" fill="none"/><path stroke-linejoin="round" d="m594.6 426c0.1-0.9 0.6-2 0.8-2.9" stroke="#000" stroke-miterlimit="10" stroke-width="0.8" fill="none"/><path stroke-linejoin="round" d="m583.9 453.3z" stroke="#000" stroke-miterlimit="10" stroke-width="0.8" fill="none"/><path stroke-linejoin="round" d="m703 371z" stroke="#000" stroke-miterlimit="10" stroke-width="0.8" fill="none"/><path stroke-linejoin="round" d="m622.3 443.4c1.3-0.7 2.9-1.7 3.9-2.7" stroke="#000" stroke-miterlimit="10" stroke-width="0.8" fill="none"/><path stroke-linejoin="round" d="m583.9 453.3z" stroke="#000" stroke-miterlimit="10" stroke-width="0.8" fill="none"/><path stroke-linejoin="round" d="m703 371z" stroke="#000" stroke-miterlimit="10" stroke-width="0.8" fill="none"/><path stroke-linejoin="round" d="m645.7 446.8c-0.4-0.8-0.7-1.8-1-2.7" stroke="#000" stroke-miterlimit="10" stroke-width="0.8" fill="none"/><path stroke-linejoin="round" d="m583.9 453.3z" stroke="#000" stroke-miterlimit="10" stroke-width="0.8" fill="none"/><path stroke-linejoin="round" d="m703 371z" stroke="#000" stroke-miterlimit="10" stroke-width="0.8" fill="none"/><path stroke-linejoin="round" d="m665.9 448.9c-0.8-1-1.3-2.2-1.8-3.3" stroke="#000" stroke-miterlimit="10" stroke-width="0.8" fill="none"/><path stroke-linejoin="round" d="m583.9 453.3z" stroke="#000" stroke-miterlimit="10" stroke-width="0.8" fill="none"/><path stroke-linejoin="round" d="m703 371z" stroke="#000" stroke-miterlimit="10" stroke-width="0.8" fill="none"/><path stroke-linejoin="round" d="m689.3 443c0.1-0.7 0.7-2.2 0.4-2.6" stroke="#000" stroke-miterlimit="10" stroke-width="0.8" fill="none"/><path stroke-linejoin="round" d="m583.9 453.3z" stroke="#000" stroke-miterlimit="10" stroke-width="0.8" fill="none"/><path stroke-linejoin="round" d="m703 371z" stroke="#000" stroke-miterlimit="10" stroke-width="0.8" fill="none"/><path stroke-linejoin="round" d="m698.8 424.1c-1-1.9-2.2-3.6-4-5" stroke="#000" stroke-miterlimit="10" stroke-width="0.8" fill="none"/><path stroke-linejoin="round" d="m583.9 453.3z" stroke="#000" stroke-miterlimit="10" stroke-width="0.8" fill="none"/><path stroke-linejoin="round" d="m703 371z" stroke="#000" stroke-miterlimit="10" stroke-width="0.8" fill="none"/><path stroke-linejoin="round" d="m686.8 396.1c0.4 3.1-2.1 10.7-9.1 13.6" stroke="#000" stroke-miterlimit="10" stroke-width="0.8" fill="none"/><path stroke-linejoin="round" d="m583.9 453.3z" stroke="#000" stroke-miterlimit="10" stroke-width="0.8" fill="none"/><path stroke-linejoin="round" d="m703 371z" stroke="#000" stroke-miterlimit="10" stroke-width="0.8" fill="none"/><path stroke-linejoin="round" d="m662.4 383.6c0.5 1.2 0.6 2.4 0.7 3.6" stroke="#000" stroke-miterlimit="10" stroke-width="0.8" fill="none"/><path stroke-linejoin="round" d="m583.9 453.3z" stroke="#000" stroke-miterlimit="10" stroke-width="0.8" fill="none"/><path stroke-linejoin="round" d="m703 371z" stroke="#000" stroke-miterlimit="10" stroke-width="0.8" fill="none"/><path stroke-linejoin="round" d="m629.2 379c-0.8 1-1.4 2.1-1.9 3.3" stroke="#000" stroke-miterlimit="10" stroke-width="0.8" fill="none"/><path stroke-linejoin="round" d="m583.9 453.3z" stroke="#000" stroke-miterlimit="10" stroke-width="0.8" fill="none"/><path stroke-linejoin="round" d="m703 371z" stroke="#000" stroke-miterlimit="10" stroke-width="0.8" fill="none"/><path stroke-linejoin="round" d="m599.9 386.1c1 0.2 2.1 0.4 3.1 0.8" stroke="#000" stroke-miterlimit="10" stroke-width="0.8" fill="none"/><path stroke-linejoin="round" d="m583.9 453.3z" stroke="#000" stroke-miterlimit="10" stroke-width="0.8" fill="none"/><path stroke-linejoin="round" d="m703 371z" stroke="#000" stroke-miterlimit="10" stroke-width="0.8" fill="none"/><path stroke-linejoin="round" d="m589.8 405.2c1.8-1 3.9-1.9 7-1.6" stroke="#000" stroke-miterlimit="10" stroke-width="0.8" fill="none"/><path stroke-linejoin="round" d="m583.9 453.3z" stroke="#000" stroke-miterlimit="10" stroke-width="0.8" fill="none"/><path stroke-linejoin="round" d="m703 371z" stroke="#000" stroke-miterlimit="10" stroke-width="0.8" fill="none"/><text transform="matrix(1,0,0,-1,607.9,417.8)" font-size="18px" font-family="&apos;Liberation Sans&apos;" fill="#000000"><tspan y="0" x="0 12.996 23.004 37.908001 47.916 52.902">Remote</tspan></text>
<text transform="matrix(1,0,0,-1,600,397.7)" font-size="18px" font-family="&apos;Liberation Sans&apos;" fill="#000000"><tspan y="0" x="0 5.994 16.002001 25.902 35.91 44.91 48.905998 53.891998 63.900002 69.893997">repository</tspan></text>
<path d="m586.8 232.4c0 5.5 29 11.1 58.1 11.1 29 0 58.1-5.6 58.1-11.1v-48.6c0-5.6-29.1-11.2-58.1-11.2-29.1 0-58.1 5.6-58.1 11.2v48.6zm0 11.1zm116.2-70.9z" fill-rule="evenodd" fill="#ccc"/><path stroke-linejoin="round" d="m586.8 232.4c0 5.5 29 11.1 58.1 11.1 29 0 58.1-5.6 58.1-11.1v-48.6c0-5.6-29.1-11.2-58.1-11.2-29.1 0-58.1 5.6-58.1 11.2v48.6z" stroke="#000" stroke-miterlimit="10" stroke-width="0.8" fill="none"/><path stroke-linejoin="round" d="m586.8 243.5z" stroke="#000" stroke-miterlimit="10" stroke-width="0.8" fill="none"/><path stroke-linejoin="round" d="m703 172.6z" stroke="#000" stroke-miterlimit="10" stroke-width="0.8" fill="none"/><path d="m586.8 232.4c0-5.6 29-11.2 58.1-11.2 29 0 58.1 5.6 58.1 11.2h-116.2zm0 11.1zm116.2-70.9z" fill-rule="evenodd" fill="#ccc"/><path stroke-linejoin="round" d="m586.8 232.4c0-5.6 29-11.2 58.1-11.2 29 0 58.1 5.6 58.1 11.2" stroke="#000" stroke-miterlimit="10" stroke-width="0.8" fill="none"/><path stroke-linejoin="round" d="m586.8 243.5z" stroke="#000" stroke-miterlimit="10" stroke-width="0.8" fill="none"/><path stroke-linejoin="round" d="m703 172.6z" stroke="#000" stroke-miterlimit="10" stroke-width="0.8" fill="none"/><text transform="matrix(1,0,0,-1,603.5,196.2)" font-size="18px" font-family="&apos;Liberation Sans&apos;" fill="#000000"><tspan y="0" x="0 9.8999996 19.908001 28.908001 38.916 42.821999 47.897999 57.798 67.806 72.792">Local data</tspan></text>
<path d="m204.1 237.8c24.1 0 42.5-9.8 42.5-22.6 0-12.9-18.4-22.7-42.5-22.7s-42.5 9.8-42.5 22.7c0 12.8 18.4 22.6 42.5 22.6zm-42.5 0zm85-45.3z" fill-rule="evenodd" fill="#ccc"/><path stroke-linejoin="round" d="m204.1 237.8c24.1 0 42.5-9.8 42.5-22.6 0-12.9-18.4-22.7-42.5-22.7s-42.5 9.8-42.5 22.7c0 12.8 18.4 22.6 42.5 22.6z" stroke="#000" stroke-miterlimit="10" stroke-width="0.8" fill="none"/><path stroke-linejoin="round" d="m161.6 237.8z" stroke="#000" stroke-miterlimit="10" stroke-width="0.8" fill="none"/><path stroke-linejoin="round" d="m246.6 192.5z" stroke="#000" stroke-miterlimit="10" stroke-width="0.8" fill="none"/><text transform="matrix(1,0,0,-1,181.7,208.9)" font-size="18px" font-family="&apos;Liberation Sans&apos;" fill="#000000"><tspan y="0" x="0 5.994 15.894 25.902 35.91">rgeos</tspan></text>
<path d="m391.2 237.8c24.1 0 42.5-9.8 42.5-22.6 0-12.9-18.4-22.7-42.5-22.7s-42.5 9.8-42.5 22.7c0 12.8 18.4 22.6 42.5 22.6zm-42.5 0zm85-45.3z" fill-rule="evenodd" fill="#ccc"/><path stroke-linejoin="round" d="m391.2 237.8c24.1 0 42.5-9.8 42.5-22.6 0-12.9-18.4-22.7-42.5-22.7s-42.5 9.8-42.5 22.7c0 12.8 18.4 22.6 42.5 22.6z" stroke="#000" stroke-miterlimit="10" stroke-width="0.8" fill="none"/><path stroke-linejoin="round" d="m348.7 237.8z" stroke="#000" stroke-miterlimit="10" stroke-width="0.8" fill="none"/><path stroke-linejoin="round" d="m433.7 192.5z" stroke="#000" stroke-miterlimit="10" stroke-width="0.8" fill="none"/><text transform="matrix(1,0,0,-1,371.3,208.9)" font-size="18px" font-family="&apos;Liberation Sans&apos;" fill="#000000"><tspan y="0" x="0 5.994 15.894 25.902 35.91">rgdal</tspan></text>
<path d="m294.8 297.4c61 0 107.7-11.1 107.7-25.5 0-14.5-46.7-25.5-107.7-25.5-61.1 0-107.7 11-107.7 25.5 0 14.4 46.6 25.5 107.7 25.5zm-107.7 0zm215.4-51.1z" fill-rule="evenodd" fill="#ccc"/><path stroke-linejoin="round" d="m294.8 297.4c61 0 107.7-11.1 107.7-25.5 0-14.5-46.7-25.5-107.7-25.5-61.1 0-107.7 11-107.7 25.5 0 14.4 46.6 25.5 107.7 25.5z" stroke="#000" stroke-miterlimit="10" stroke-width="0.8" fill="none"/><path stroke-linejoin="round" d="m187.1 297.4z" stroke="#000" stroke-miterlimit="10" stroke-width="0.8" fill="none"/><path stroke-linejoin="round" d="m402.5 246.3z" stroke="#000" stroke-miterlimit="10" stroke-width="0.8" fill="none"/><text transform="matrix(1,0,0,-1,203.8,265.6)" font-size="18px" font-family="&apos;Liberation Sans&apos;" fill="#000000"><tspan y="0" x="0 9 18.9 23.976 28.962 34.956001 44.964001 53.964001 58.950001 68.958 73.853996 78.93 83.916 98.910004 108.81 118.818 123.804 133.812 143.82001 147.726 156.726 161.802 166.78799 171.774 176.85001">sp, raster, maptools, ...</tspan></text>
<path d="m204.1 113.1c24.1 0 42.5-9.8 42.5-22.6 0-12.9-18.4-22.7-42.5-22.7s-42.5 9.8-42.5 22.7c0 12.8 18.4 22.6 42.5 22.6zm-42.5 0zm85-45.4z" fill-rule="evenodd" fill="#ccc"/><path stroke-linejoin="round" d="m204.1 113.1c24.1 0 42.5-9.8 42.5-22.6 0-12.9-18.4-22.7-42.5-22.7s-42.5 9.8-42.5 22.7c0 12.8 18.4 22.6 42.5 22.6z" stroke="#000" stroke-miterlimit="10" stroke-width="0.8" fill="none"/><path stroke-linejoin="round" d="m161.6 113.1z" stroke="#000" stroke-miterlimit="10" stroke-width="0.8" fill="none"/><path stroke-linejoin="round" d="m246.6 67.7z" stroke="#000" stroke-miterlimit="10" stroke-width="0.8" fill="none"/><text transform="matrix(1,0,0,-1,178,84.2)" font-size="18px" font-family="&apos;Liberation Sans&apos;" fill="#000000"><tspan y="0" x="0 14.076 26.063999 40.049999">GEOS</tspan></text>
<path d="m507.4 135.8c24.1 0 42.5-9.8 42.5-22.7 0-12.8-18.4-22.6-42.5-22.6s-42.5 9.8-42.5 22.6c0 12.9 18.4 22.7 42.5 22.7zm-42.5 0zm85-45.4z" fill-rule="evenodd" fill="#ccc"/><path stroke-linejoin="round" d="m507.4 135.8c24.1 0 42.5-9.8 42.5-22.7 0-12.8-18.4-22.6-42.5-22.6s-42.5 9.8-42.5 22.6c0 12.9 18.4 22.7 42.5 22.7z" stroke="#000" stroke-miterlimit="10" stroke-width="0.8" fill="none"/><path stroke-linejoin="round" d="m464.9 135.8z" stroke="#000" stroke-miterlimit="10" stroke-width="0.8" fill="none"/><path stroke-linejoin="round" d="m549.9 90.4z" stroke="#000" stroke-miterlimit="10" stroke-width="0.8" fill="none"/><text transform="matrix(1,0,0,-1,486.9,106.8)" font-size="18px" font-family="&apos;Liberation Sans&apos;" fill="#000000"><tspan y="0" x="0 13.986 28.062">OGR</tspan></text>
<path d="m467.7 76.3c24.1 0 42.5-9.8 42.5-22.7 0-12.8-18.4-22.7-42.5-22.7s-42.5 9.9-42.5 22.7c0 12.9 18.4 22.7 42.5 22.7zm-42.5 0zm85.1-45.4z" fill-rule="evenodd" fill="#ccc"/><path stroke-linejoin="round" d="m467.7 76.3c24.1 0 42.5-9.8 42.5-22.7 0-12.8-18.4-22.7-42.5-22.7s-42.5 9.9-42.5 22.7c0 12.9 18.4 22.7 42.5 22.7z" stroke="#000" stroke-miterlimit="10" stroke-width="0.8" fill="none"/><path stroke-linejoin="round" d="m425.2 76.3z" stroke="#000" stroke-miterlimit="10" stroke-width="0.8" fill="none"/><path stroke-linejoin="round" d="m510.3 30.9z" stroke="#000" stroke-miterlimit="10" stroke-width="0.8" fill="none"/><text transform="matrix(1,0,0,-1,452.8,47.3)" font-size="18px" font-family="&apos;Liberation Sans&apos;" fill="#000000"><tspan y="0" x="0 9.8999996 15.894 25.902">proj</tspan></text>
<g stroke="#000" stroke-miterlimit="10" stroke-width=".8" fill="none"><path d="m473.7 408.7 1.3-0.8"/><path d="m476.3 407.1 1.3-0.8"/><path d="m478.8 405.5 1.3-0.8"/><path d="m481.4 403.9 1.3-0.8"/><path d="m483.9 402.3 1.3-0.8"/><path d="m486.5 400.7 1.3-0.8"/><path d="m489 399.1 1.3-0.8"/><path d="m491.6 397.5 1.3-0.8"/><path d="m494.1 395.9 1.3-0.8"/><path d="m496.7 394.3 1.3-0.8"/><path d="m499.3 392.7 1.2-0.8"/><path d="m501.8 391.1 1.3-0.8"/><path d="m504.4 389.5 1.2-0.7"/><path d="m506.9 388 1.3-0.9"/><path d="m509.5 386.3 1.2-0.8"/><path d="m512 384.8 1.3-0.8"/><path d="m514.6 383.2 1.2-0.8"/><path d="m517.1 381.6 1.3-0.8"/><path d="m519.7 380 1.3-0.8"/><path d="m522.2 378.4 1.3-0.8"/><path d="m524.8 376.8 1.3-0.8"/><path d="m527.3 375.2 1.3-0.8"/><path d="m529.9 373.6 1.3-0.8"/><path d="m532.4 372 1.3-0.8"/><path d="m535 370.4 1.3-0.8"/><path d="m537.5 368.8 1.3-0.8"/><path d="m540.1 367.2 1.3-0.8"/><path d="m542.6 365.6 1.3-0.8"/><path d="m545.2 364 1.3-0.8"/><path d="m547.8 362.4 1.2-0.8"/><path d="m550.3 360.8 1.3-0.8"/><path d="m552.9 359.2 1.2-0.8"/><path d="m555.4 357.7 1.3-0.8"/><path d="m558 356 1.2-0.8"/><path d="m560.5 354.5 1.3-0.8"/><path d="m563.1 352.9 1.2-0.8"/><path d="m565.6 351.3 1.3-0.8"/><path d="m568.2 349.7 1.3-0.8"/><path d="m570.7 348.1 1.3-0.8"/><path d="m573.3 346.5 1.3-0.8"/><path d="m575.8 344.9 1.3-0.8"/><path d="m578.4 343.3 1.3-0.8"/><path d="m580.9 341.7 1.3-0.8"/><path d="m583.5 340.1 1.3-0.8"/><path d="m586 338.5 1.3-0.8"/><path d="m588.6 336.9 1.3-0.8"/><path d="m591.1 335.3 1.3-0.8"/><path d="m593.7 333.7 1.3-0.8"/><path d="m596.3 332.1 1.2-0.8"/><path d="m598.8 330.5 0.2-0.1"/></g><path d="m609.4 323.9-8.6 10.4-4.5-7.2 13.1-3.2z" fill-rule="evenodd"/><path d="m379.5 408.7-27.2-25.1" stroke="#000" stroke-miterlimit="10" stroke-width=".8" fill="none"/><path d="m343.3 375.3 12.3 5.5-5.8 6.3-6.5-11.8z" fill-rule="evenodd"/><path d="m643.5 331.4v27.5" stroke="#000" stroke-miterlimit="10" stroke-width=".8" fill="none"/><path d="m643.5 371.1-4.3-12.8h8.5l-4.2 12.8z" fill-rule="evenodd"/><path d="m643.5 280.4 0.9-24.7" stroke="#000" stroke-miterlimit="10" stroke-width=".8" fill="none"/><path d="m644.9 243.5 3.8 12.9-8.6-0.3 4.8-12.6z" fill-rule="evenodd"/><path d="m343.3 327.2 232.5-113.8" stroke="#000" stroke-miterlimit="10" stroke-width=".8" fill="none"/><path d="m586.8 208.1-9.6 9.4-3.8-7.6 13.4-1.8z" fill-rule="evenodd"/><path d="m296.2 317.2-0.5-7.7" stroke="#000" stroke-miterlimit="10" stroke-width=".8" fill="none"/><path d="m294.8 297.4 5.2 12.4-8.5 0.6 3.3-13z" fill-rule="evenodd"/><path d="m218.6 253.8-6.3-7" stroke="#000" stroke-miterlimit="10" stroke-width=".8" fill="none"/><path d="m204.1 237.8 11.7 6.6-6.3 5.7-5.4-12.3z" fill-rule="evenodd"/><path d="m204.1 192.5v-67.2" stroke="#000" stroke-miterlimit="10" stroke-width=".8" fill="none"/><path d="m204.1 113.1 4.2 12.8h-8.5l4.3-12.8z" fill-rule="evenodd"/><path d="m391.2 192.5v-27.5" stroke="#000" stroke-miterlimit="10" stroke-width=".8" fill="none"/><path d="m391.2 152.8 4.2 12.8h-8.5l4.3-12.8z" fill-rule="evenodd"/><path stroke-linejoin="round" d="m464.9 113.1z" stroke="#000" stroke-miterlimit="10" stroke-width="0.8" fill="none"/><path d="m452.7 113.1h-4" stroke="#000" stroke-miterlimit="10" stroke-width=".8" fill="none"/><path d="m464.9 113.1-12.8 4.3v-8.5l12.8 4.2z" fill-rule="evenodd"/><path d="m436.5 113.1 12.8-4.2v8.5l-12.8-4.3z" fill-rule="evenodd"/><path d="m423.3 85 6-6.4" stroke="#000" stroke-miterlimit="10" stroke-width=".8" fill="none"/><path d="m437.6 69.6-5.5 12.2-6.3-5.7 11.8-6.5z" fill-rule="evenodd"/><path d="m507.4 90.4-4.5-9.7" stroke="#000" stroke-miterlimit="10" stroke-width=".8" fill="none"/><path d="m497.8 69.6 9.2 9.8-7.7 3.6-1.5-13.4z" fill-rule="evenodd"/><path d="m371 253.8 10.6-8.4" stroke="#000" stroke-miterlimit="10" stroke-width=".8" fill="none"/><path d="m391.2 237.8-7.4 11.3-5.3-6.7 12.7-4.6z" fill-rule="evenodd"/><path d="m296.2 385.2c37.8 0 66.6-14.7 66.6-34s-28.8-34-66.6-34c-37.7 0-66.6 14.7-66.6 34s28.9 34 66.6 34zm-66.6 0zm133.3-68z" fill-rule="evenodd" fill="#ccc"/><path stroke-linejoin="round" d="m296.2 385.2c37.8 0 66.6-14.7 66.6-34s-28.8-34-66.6-34c-37.7 0-66.6 14.7-66.6 34s28.9 34 66.6 34z" stroke="#000" stroke-miterlimit="10" stroke-width="0.8" fill="none"/><path stroke-linejoin="round" d="m229.6 385.2z" stroke="#000" stroke-miterlimit="10" stroke-width="0.8" fill="none"/><path stroke-linejoin="round" d="m362.9 317.2z" stroke="#000" stroke-miterlimit="10" stroke-width="0.8" fill="none"/><g fill-rule="evenodd" clip-path="url(#c)"><path d="m282.6 386.3 0.5-0.3-37.8-25.4-0.6 0.4 37.9 25.3z" fill="#cbced0"/><path d="m283.1 386.1 0.5-0.4-37.9-25.4-0.5 0.4 37.9 25.4z" fill="#cacdcf"/><path d="m283.5 385.8 0.5-0.4-37.9-25.3-0.5 0.3 37.9 25.4z" fill="#cacdcf"/><path d="m283.9 385.5 0.5-0.3-37.8-25.4-0.6 0.3 37.9 25.4z" fill="#c9ccce"/><path d="m284.4 385.2 0.5-0.4-37.9-25.3-0.5 0.3 37.9 25.4z" fill="#c9ccce"/><path d="m284.8 384.9 0.5-0.3-37.9-25.4-0.5 0.3 37.9 25.4z" fill="#c8cbcd"/><path d="m285.2 384.6 0.5-0.3-37.9-25.4-0.4 0.3 37.8 25.4z" fill="#c8cacd"/><path d="m285.6 384.3 0.6-0.3-37.9-25.4-0.5 0.4 37.8 25.3z" fill="#c7cacc"/><path d="m286.1 384 0.5-0.3-37.9-25.4-0.5 0.3 37.9 25.4z" fill="#c6c9cc"/><path d="m286.5 383.7 0.5-0.3-37.9-25.4-0.5 0.4 37.9 25.3z" fill="#c6c9cb"/><path d="m287 383.5 0.5-0.4-37.9-25.4-0.5 0.4 37.9 25.4z" fill="#c5c8ca"/><path d="m287.4 383.2 0.5-0.4-37.9-25.3-0.5 0.3 37.9 25.4z" fill="#c5c7ca"/><path d="m287.8 382.9 0.5-0.4-37.9-25.3-0.5 0.3 37.9 25.4z" fill="#c4c7c9"/><path d="m288.3 382.6 0.4-0.3-37.8-25.4-0.5 0.3 37.9 25.4z" fill="#c4c6c9"/><path d="m288.7 382.3 0.5-0.4-37.9-25.3-0.5 0.3 37.9 25.4z" fill="#c3c6c8"/><path d="m289.1 382 0.5-0.3-37.9-25.4-0.5 0.3 37.9 25.4z" fill="#c2c5c8"/><path d="m289.5 381.7 0.5-0.3-37.8-25.4-0.5 0.4 37.8 25.3z" fill="#c2c4c7"/><path d="m290 381.4 0.5-0.3-37.9-25.4-0.5 0.4 37.9 25.3z" fill="#c1c4c7"/><path d="m290.4 381.1 0.5-0.3-37.9-25.4-0.5 0.4 37.9 25.3z" fill="#c1c3c6"/><path d="m290.8 380.8 0.5-0.3-37.8-25.4-0.5 0.4 37.8 25.3z" fill="#c0c3c5"/><path d="m291.3 380.6 0.5-0.4-37.9-25.4-0.5 0.4 37.9 25.4z" fill="#c0c2c5"/><path d="m291.7 380.3 0.5-0.4-37.9-25.3-0.5 0.3 37.9 25.4z" fill="#bfc1c4"/><path d="m292.1 380 0.5-0.3-37.9-25.4-0.4 0.3 37.8 25.4z" fill="#bec1c4"/><path d="m292.6 379.7 0.5-0.3-37.9-25.4-0.5 0.3 37.9 25.4z" fill="#bec0c3"/><path d="m293 379.4 0.5-0.3-37.9-25.4-0.5 0.3 37.9 25.4z" fill="#bdbfc3"/><path d="m293.4 379.1 0.5-0.3-37.8-25.4-0.6 0.3 37.9 25.4z" fill="#bdbfc2"/><path d="m293.9 378.8 0.5-0.3-37.9-25.4-0.5 0.4 37.9 25.3z" fill="#bcbec2"/><path d="m294.3 378.5 0.5-0.3-37.9-25.4-0.5 0.4 37.9 25.3z" fill="#bcbec1"/><path d="m294.7 378.2 0.5-0.3-37.8-25.4-0.6 0.4 37.9 25.3z" fill="#bbbdc0"/><path d="m295.2 378 0.5-0.4-37.9-25.4-0.5 0.4 37.9 25.4z" fill="#babcc0"/><path d="m295.6 377.7 0.5-0.4-37.9-25.3-0.5 0.3 37.9 25.4z" fill="#babcbf"/><path d="m296 377.4 0.5-0.4-37.9-25.3-0.4 0.3 37.8 25.4z" fill="#b9bbbf"/><path d="m296.4 377.1 0.6-0.3-37.9-25.4-0.5 0.3 37.8 25.4z" fill="#b9bbbe"/><path d="m296.9 376.8 0.5-0.4-37.9-25.3-0.5 0.3 37.9 25.4z" fill="#b8babe"/><path d="m297.3 376.5 0.5-0.3-37.9-25.4-0.5 0.3 37.9 25.4z" fill="#b8b9bd"/><path d="m297.8 376.2 0.5-0.3-37.9-25.4-0.5 0.4 37.9 25.3z" fill="#b7b9bd"/><path d="m298.2 375.9 0.5-0.3-37.9-25.4-0.5 0.4 37.9 25.3z" fill="#b6b8bc"/><path d="m298.6 375.6 0.5-0.3-37.9-25.4-0.5 0.4 37.9 25.3z" fill="#b6b8bb"/><path d="m299.1 375.3 0.4-0.3-37.8-25.4-0.5 0.4 37.9 25.3z" fill="#b5b7bb"/><path d="m299.5 375.1 0.5-0.4-37.9-25.4-0.5 0.4 37.9 25.4z" fill="#b5b6ba"/><path d="m299.9 374.8 0.5-0.4-37.9-25.3-0.5 0.3 37.9 25.4z" fill="#b4b6ba"/><path d="m300.3 374.5 0.5-0.3-37.8-25.4-0.5 0.3 37.8 25.4z" fill="#b4b5b9"/><path d="m300.8 374.2 0.5-0.3-37.9-25.4-0.5 0.3 37.9 25.4z" fill="#b3b5b9"/><path d="m301.2 373.9 0.5-0.3-37.9-25.4-0.5 0.3 37.9 25.4z" fill="#b2b4b8"/><path d="m301.6 373.6 0.5-0.3-37.8-25.4-0.5 0.3 37.8 25.4z" fill="#b2b3b8"/><path d="m302.1 373.3 0.5-0.3-37.9-25.4-0.5 0.4 37.9 25.3z" fill="#b1b3b7"/><path d="m302.5 373 0.5-0.3-37.9-25.4-0.5 0.4 37.9 25.3z" fill="#b1b2b6"/><path d="m302.9 372.7 0.5-0.3-37.9-25.3-0.4 0.3 37.8 25.3z" fill="#b0b2b6"/><path d="m303.4 372.5 0.5-0.4-37.9-25.4-0.5 0.4 37.9 25.4z" fill="#b0b1b5"/><path d="m303.8 372.2 0.5-0.4-37.9-25.3-0.5 0.3 37.9 25.4z" fill="#afb0b5"/><path d="m304.2 371.9 0.5-0.4-37.8-25.3-0.6 0.3 37.9 25.4z" fill="#aeb0b4"/><path d="m304.7 371.6 0.5-0.3-37.9-25.4-0.5 0.3 37.9 25.4z" fill="#aeafb4"/><path d="m305.1 371.3 0.5-0.3-37.9-25.4-0.5 0.3 37.9 25.4z" fill="#adafb3"/><path d="m305.5 371 0.5-0.3-37.8-25.4-0.6 0.3 37.9 25.4z" fill="#adaeb3"/><path d="m306 370.7 0.5-0.3-37.9-25.4-0.5 0.4 37.9 25.3z" fill="#acadb2"/><path d="m306.4 370.4 0.5-0.3-37.9-25.4-0.5 0.4 37.9 25.3z" fill="#acadb1"/><path d="m306.8 370.2 0.5-0.4-37.9-25.4-0.4 0.4 37.8 25.4z" fill="#abacb1"/><path d="m307.2 369.8 0.6-0.3-37.9-25.4-0.5 0.4 37.8 25.3z" fill="#aaacb0"/><path d="m307.7 369.6 0.5-0.4-37.9-25.3-0.5 0.3 37.9 25.4z" fill="#aaabb0"/><path d="m308.1 369.3 0.5-0.4-37.9-25.3-0.5 0.3 37.9 25.4z" fill="#a9aaaf"/><path d="m308.6 369 0.5-0.3-37.9-25.4-0.5 0.3 37.9 25.4z" fill="#a9aaaf"/><path d="m309 368.7 0.5-0.3-37.9-25.4-0.5 0.3 37.9 25.4z" fill="#a8a9ae"/><path d="m309.4 368.4 0.5-0.3-37.9-25.4-0.5 0.3 37.9 25.4z" fill="#a8a9ae"/><path d="m309.9 368.1 0.4-0.3-37.8-25.4-0.5 0.3 37.9 25.4z" fill="#a7a8ad"/><path d="m310.3 367.8 0.5-0.3-37.9-25.4-0.5 0.4 37.9 25.3z" fill="#a6a7ac"/><path d="m310.7 367.5 0.5-0.3-37.9-25.4-0.5 0.4 37.9 25.3z" fill="#a6a7ac"/><path d="m311.1 367.2 0.5-0.3-37.8-25.3-0.5 0.3 37.8 25.3z" fill="#a5a6ab"/><path d="m311.6 367 0.5-0.4-37.9-25.4-0.5 0.4 37.9 25.4z" fill="#a5a5ab"/><path d="m312 366.7 0.5-0.4-37.9-25.3-0.5 0.3 37.9 25.4z" fill="#a4a5aa"/><path d="m312.4 366.4 0.5-0.4-37.8-25.3-0.5 0.3 37.8 25.4z" fill="#a3a4aa"/><path d="m312.9 366.1 0.5-0.3-37.9-25.4-0.5 0.3 37.9 25.4z" fill="#a3a4a9"/><path d="m313.3 365.8 0.5-0.3-37.9-25.4-0.5 0.3 37.9 25.4z" fill="#a2a3a8"/><path d="m313.7 365.5 0.5-0.3-37.9-25.4-0.4 0.3 37.8 25.4z" fill="#a2a2a8"/><path d="m314.2 365.2 0.5-0.3-37.9-25.4-0.5 0.4 37.9 25.3z" fill="#a1a2a7"/><path d="m314.6 364.9 0.5-0.3-37.9-25.4-0.5 0.4 37.9 25.3z" fill="#a1a1a7"/><path d="m315 364.7 0.5-0.4-37.8-25.4-0.6 0.4 37.9 25.4z" fill="#a0a1a6"/><path d="m315.5 364.3 0.5-0.3-37.9-25.4-0.5 0.4 37.9 25.3z" fill="#9fa0a6"/><path d="m315.9 364.1 0.5-0.4-37.9-25.3-0.5 0.3 37.9 25.4z" fill="#9f9fa5"/><path d="m316.3 363.8 0.5-0.4-37.8-25.3-0.6 0.3 37.9 25.4z" fill="#9e9fa5"/><path d="m316.8 363.5 0.5-0.3-37.9-25.4-0.5 0.3 37.9 25.4z" fill="#9e9ea4"/><path d="m317.2 363.2 0.5-0.3-37.9-25.4-0.5 0.3 37.9 25.4z" fill="#9d9ea3"/><path d="m317.6 362.9 0.5-0.3-37.9-25.4-0.4 0.3 37.8 25.4z" fill="#9d9da3"/><path d="m318 362.6 0.6-0.3-37.9-25.4-0.5 0.3 37.8 25.4z" fill="#9c9ca2"/><path d="m318.5 362.3 0.5-0.3-37.9-25.4-0.5 0.4 37.9 25.3z" fill="#9b9ca2"/><path d="m318.9 362 0.5-0.3-37.9-25.4-0.5 0.4 37.9 25.3z" fill="#9b9ba1"/><path d="m319.4 361.8 0.5-0.4-37.9-25.3-0.5 0.3 37.9 25.4z" fill="#9a9ba1"/><path d="m319.8 361.5 0.5-0.4-37.9-25.4-0.5 0.4 37.9 25.4z" fill="#9a9aa0"/><path d="m320.2 361.2 0.5-0.4-37.9-25.3-0.5 0.3 37.9 25.4z" fill="#9999a0"/><path d="m320.7 360.9 0.4-0.4-37.8-25.3-0.5 0.3 37.9 25.4z" fill="#99999f"/><path d="m321.1 360.6 0.5-0.3-37.9-25.4-0.5 0.3 37.9 25.4z" fill="#98989e"/><path d="m321.5 360.3 0.5-0.3-37.9-25.4-0.5 0.3 37.9 25.4z" fill="#97989e"/><path d="m321.9 360 0.5-0.3-37.8-25.4-0.5 0.3 37.8 25.4z" fill="#97979d"/><path d="m322.4 359.7 0.5-0.3-37.9-25.4-0.5 0.4 37.9 25.3z" fill="#96969d"/><path d="m322.8 359.4 0.5-0.3-37.9-25.4-0.5 0.4 37.9 25.3z" fill="#96969c"/><path d="m323.2 359.2 0.5-0.4-37.8-25.4-0.5 0.4 37.8 25.4z" fill="#95959c"/><path d="m323.7 358.8 0.5-0.3-37.9-25.3-0.5 0.3 37.9 25.3z" fill="#95959b"/><path d="m324.1 358.6 0.5-0.4-37.9-25.3-0.5 0.3 37.9 25.4z" fill="#94949b"/><path d="m324.5 358.3 0.5-0.4-37.9-25.3-0.4 0.3 37.8 25.4z" fill="#93939a"/><path d="m325 358 0.5-0.3-37.9-25.4-0.5 0.3 37.9 25.4z" fill="#939399"/><path d="m325.4 357.7 0.5-0.3-37.9-25.4-0.5 0.3 37.9 25.4z" fill="#929299"/><path d="m325.8 357.4 0.5-0.3-37.8-25.4-0.6 0.3 37.9 25.4z" fill="#929298"/><path d="m326.3 357.1 0.5-0.3-37.9-25.4-0.5 0.3 37.9 25.4z" fill="#919198"/><path d="m326.7 356.8 0.5-0.3-37.9-25.4-0.5 0.4 37.9 25.3z" fill="#919097"/><path d="m327.1 356.5 0.5-0.3-37.8-25.4-0.6 0.4 37.9 25.3z" fill="#909097"/><path d="m327.6 356.3 0.5-0.4-37.9-25.3-0.5 0.3 37.9 25.4z" fill="#8f8f96"/><path d="m328 356 0.5-0.4-37.9-25.4-0.5 0.4 37.9 25.4z" fill="#8f8e96"/><path d="m328.4 355.7 0.5-0.4-37.9-25.3-0.4 0.3 37.8 25.4z" fill="#8e8e95"/><path d="m328.8 355.4 0.6-0.4-37.9-25.3-0.5 0.3 37.8 25.4z" fill="#8e8d94"/><path d="m329.3 355.1 0.5-0.3-37.9-25.4-0.5 0.3 37.9 25.4z" fill="#8d8d94"/><path d="m329.7 354.8 0.5-0.3-37.9-25.4-0.5 0.3 37.9 25.4z" fill="#8d8c93"/><path d="m330.2 354.5 0.5-0.3-37.9-25.4-0.5 0.3 37.9 25.4z" fill="#8c8b93"/><path d="m330.6 354.2 0.5-0.3-37.9-25.4-0.5 0.4 37.9 25.3z" fill="#8b8b92"/><path d="m331 353.9 0.5-0.3-37.9-25.4-0.5 0.4 37.9 25.3z" fill="#8b8a92"/><path d="m331.5 353.7 0.4-0.4-37.8-25.4-0.5 0.4 37.9 25.4z" fill="#8a8a91"/><path d="m331.9 353.3 0.5-0.3-37.9-25.3-0.5 0.3 37.9 25.3z" fill="#8a8991"/><path d="m332.3 353.1 0.5-0.4-37.9-25.3-0.5 0.3 37.9 25.4z" fill="#898890"/><path d="m332.7 352.8 0.5-0.4-37.8-25.3-0.5 0.3 37.8 25.4z" fill="#89888f"/><path d="m333.2 352.5 0.5-0.3-37.9-25.4-0.5 0.3 37.9 25.4z" fill="#88878f"/><path d="m333.6 352.2 0.5-0.3-37.9-25.4-0.5 0.3 37.9 25.4z" fill="#87878e"/><path d="m334 351.9 0.5-0.3-37.8-25.4-0.5 0.3 37.8 25.4z" fill="#87868e"/><path d="m334.5 351.6 0.5-0.3-37.9-25.4-0.5 0.3 37.9 25.4z" fill="#86858d"/><path d="m334.9 351.3 0.5-0.3-37.9-25.4-0.5 0.4 37.9 25.3z" fill="#86858d"/><path d="m335.3 351.1 0.5-0.4-37.9-25.4-0.4 0.4 37.8 25.4z" fill="#85848c"/><path d="m335.8 350.8 0.5-0.4-37.9-25.3-0.5 0.3 37.9 25.4z" fill="#85848c"/></g><g fill-rule="evenodd" clip-path="url(#b)"><path d="m296.8 373.8 0.9-0.9-25.8-26.4-0.9 0.9 25.8 26.4z" fill="#276dc3"/><path d="m297.7 372.9 0.8-0.8-25.8-26.4-0.8 0.8 25.8 26.4z" fill="#276dc2"/><path d="m298.5 372.1 0.9-0.9-25.9-26.4-0.8 0.9 25.8 26.4z" fill="#266cc2"/><path d="m299.4 371.2 0.8-0.9-25.8-26.3-0.9 0.8 25.9 26.4z" fill="#266cc1"/><path d="m300.2 370.3 0.9-0.8-25.9-26.4-0.8 0.9 25.8 26.3z" fill="#256bc0"/><path d="m301.1 369.5 0.8-0.9-25.8-26.4-0.9 0.9 25.9 26.4z" fill="#256bbf"/><path d="m301.9 368.6 0.9-0.9-25.9-26.3-0.8 0.8 25.8 26.4z" fill="#246abf"/><path d="m302.8 367.7 0.8-0.8-25.8-26.4-0.9 0.9 25.9 26.3z" fill="#246abe"/><path d="m303.6 366.9 0.9-0.9-25.9-26.3-0.8 0.8 25.8 26.4z" fill="#2369bd"/><path d="m304.5 366 0.8-0.8-25.8-26.4-0.9 0.9 25.9 26.3z" fill="#2369bd"/><path d="m305.3 365.2 0.8-0.9-25.8-26.4-0.8 0.9 25.8 26.4z" fill="#2268bc"/><path d="m306.1 364.3 0.9-0.9-25.9-26.3-0.8 0.8 25.8 26.4z" fill="#2268bb"/><path d="m307 363.4 0.8-0.8-25.8-26.4-0.9 0.9 25.9 26.3z" fill="#2167ba"/><path d="m307.8 362.6 0.9-0.9-25.9-26.4-0.8 0.9 25.8 26.4z" fill="#2167ba"/><path d="m308.7 361.7 0.8-0.8-25.8-26.4-0.9 0.8 25.9 26.4z" fill="#2066b9"/><path d="m309.5 360.9 0.9-0.9-25.9-26.4-0.8 0.9 25.8 26.4z" fill="#2066b8"/><path d="m310.4 360 0.8-0.9-25.8-26.3-0.9 0.8 25.9 26.4z" fill="#1f65b8"/><path d="m311.2 359.1 0.9-0.8-25.9-26.4-0.8 0.9 25.8 26.3z" fill="#1f65b7"/><path d="m312.1 358.3 0.8-0.9-25.8-26.4-0.9 0.9 25.9 26.4z" fill="#1e64b6"/><path d="m312.9 357.4 0.9-0.9-25.9-26.3-0.8 0.8 25.8 26.4z" fill="#1e64b5"/><path d="m313.8 356.5 0.8-0.8-25.8-26.4-0.9 0.9 25.9 26.3z" fill="#1d63b5"/><path d="m314.6 355.7 0.8-0.9-25.8-26.3-0.8 0.8 25.8 26.4z" fill="#1d63b4"/><path d="m315.4 354.8 0.9-0.8-25.9-26.4-0.8 0.9 25.8 26.3z" fill="#1c62b3"/><path d="m316.3 354 0.8-0.9-25.8-26.4-0.9 0.9 25.9 26.4z" fill="#1c62b3"/><path d="m317.1 353.1 0.9-0.9-25.9-26.3-0.8 0.8 25.8 26.4z" fill="#1b61b2"/><path d="m318 352.2 0.8-0.8-25.8-26.4-0.9 0.9 25.9 26.3z" fill="#1b61b1"/><path d="m318.8 351.4 0.9-0.9-25.9-26.4-0.8 0.9 25.8 26.4z" fill="#1a60b0"/><path d="m319.7 350.5 0.8-0.8-25.8-26.4-0.9 0.8 25.9 26.4z" fill="#1a60b0"/><path d="m320.5 349.7 0.9-0.9-25.9-26.4-0.8 0.9 25.8 26.4z" fill="#195faf"/><path d="m321.4 348.8 0.8-0.9-25.8-26.4-0.9 0.9 25.9 26.4z" fill="#195fae"/><path d="m322.2 347.9 0.8-0.8-25.8-26.4-0.8 0.8 25.8 26.4z" fill="#185eae"/><path d="m323 347.1 0.9-0.9-25.9-26.4-0.8 0.9 25.8 26.4z" fill="#185ead"/><path d="m323.9 346.2 0.8-0.9-25.8-26.3-0.9 0.8 25.9 26.4z" fill="#175dac"/><path d="m324.7 345.4 0.9-0.9-25.9-26.4-0.8 0.9 25.8 26.4z" fill="#175dab"/><path d="m325.6 344.5 0.8-0.9-25.8-26.4-0.9 0.9 25.9 26.4z" fill="#165cab"/></g><g clip-path="url(#a)"><path d="m646.3 308.8h-0.3-0.7l-0.9-0.6-0.7-0.5v-0.9-0.3-0.3-0.6l0.4-0.6 0.9-0.6h1 0.3 1l0.9 0.6 0.4 0.6 0.3 0.9v0.3l-0.3 0.9-0.4 0.5-0.9 0.6h-0.7-0.3zm-3.2-11.7-0.3-0.6-0.4-0.6v-0.3l0.4-0.6 0.6-0.3 1-0.3h1.2 0.4 0.6 0.7 0.6l0.3 0.3h0.7l0.3 0.3 0.3 0.6v0.3 0.3 0.3l-0.6 0.2h-0.7-0.6-0.3l-4.2 0.4zm8.4 11.7 0.3-0.6 0.3-0.5 0.3-0.6v-0.6-0.3-0.3l-0.3-1.5-1.3-1.5-1.9-0.8-1.6-0.3h-0.7-0.3-1-0.9v0.3l-1-1.5 2.9-0.3h0.7 2.5l2.3-0.6 1.6-1.2 0.3-1.4v-0.6-0.3l-0.3-1.5-1.6-1.5-2.3-0.9-2.5-0.3h-0.7-1l-2.5 0.3-2 0.6-1.2 0.9-0.4 1.2v0.3 0.6l0.4 0.8 0.6 0.6 0.3 0.3 0.3 0.3h-0.3l-0.3 0.3-0.3 0.3-0.3 0.6v0.3 0.3 0.6l0.6 0.6v0.3h0.3l1.3 1.2 0.3 0.2h-0.3l-0.6 0.6-1 0.9-0.3 0.9-0.3 1.2v0.3 0.6l0.3 1.4 1.3 1.5 1.9 1.2 2.2 0.3h0.7 0.3 1.3l1-0.3h5.4v-2.1l-2.5-0.3z" fill-rule="evenodd" fill="#1c1600"/><g stroke="#1c1600" stroke-miterlimit="10" stroke-width=".8" fill="none"><path d="m646.3 308.8h-0.3-0.7l-0.9-0.6-0.7-0.5v-0.9-0.3-0.3-0.6l0.4-0.6 0.9-0.6h1 0.3 1l0.9 0.6 0.4 0.6 0.3 0.9v0.3l-0.3 0.9-0.4 0.5-0.9 0.6h-0.7-0.3z"/><path d="m643.1 297.1-0.3-0.6-0.4-0.6v-0.3l0.4-0.6 0.6-0.3 1-0.3h1.2 0.4 0.6 0.7 0.6l0.3 0.3h0.7l0.3 0.3 0.3 0.6v0.3 0.3 0.3l-0.6 0.2h-0.7-0.6-0.3l-4.2 0.4z"/><path d="m651.5 308.8 0.3-0.6 0.3-0.5 0.3-0.6v-0.6-0.3-0.3l-0.3-1.5-1.3-1.5-1.9-0.8-1.6-0.3h-0.7-0.3-1-0.9v0.3l-1-1.5 2.9-0.3h0.7 2.5l2.3-0.6 1.6-1.2 0.3-1.4v-0.6-0.3l-0.3-1.5-1.6-1.5-2.3-0.9-2.5-0.3h-0.7-1l-2.5 0.3-2 0.6-1.2 0.9-0.4 1.2v0.3 0.6l0.4 0.8 0.6 0.6 0.3 0.3 0.3 0.3h-0.3l-0.3 0.3-0.3 0.3-0.3 0.6v0.3 0.3 0.6l0.6 0.6v0.3h0.3l1.3 1.2 0.3 0.2h-0.3l-0.6 0.6-1 0.9-0.3 0.9-0.3 1.2v0.3 0.6l0.3 1.4 1.3 1.5 1.9 1.2 2.2 0.3h0.7 0.3 1.3l1-0.3h5.4v-2.1l-2.5-0.3z"/></g><path d="m658.9 313.5h-1l-0.7 0.6-0.6 0.6v0.9 0.3 0.9l0.6 0.6 0.7 0.5h1 0.3 0.9l0.7-0.5 0.6-0.6v-0.9-0.3-0.9l-0.6-0.6-0.7-0.6h-0.9-0.3zm-3.6-15.6v2.1l1.6 0.3h0.3v0.3 0.3 7.3 0.3l-0.3 0.3-1.6 0.6 0.3 2.1h5.8v-10.6-0.3-0.3h0.3 0.4l1.2-0.3v-2.1h-8z" fill-rule="evenodd" fill="#1c1600"/><path d="m658.9 313.5h-1l-0.7 0.6-0.6 0.6v0.9 0.3 0.9l0.6 0.6 0.7 0.5h1 0.3 0.9l0.7-0.5 0.6-0.6v-0.9-0.3-0.9l-0.6-0.6-0.7-0.6h-0.9-0.3z" stroke="#1c1600" stroke-miterlimit="10" stroke-width=".8" fill="none"/><path d="m655.3 297.9v2.1l1.6 0.3h0.3v0.3 0.3 7.3 0.3l-0.3 0.3-1.6 0.6 0.3 2.1h5.8v-10.6-0.3-0.3h0.3 0.4l1.2-0.3v-2.1h-8z" stroke="#1c1600" stroke-miterlimit="10" stroke-width=".8" fill="none"/><path d="m674.3 299.1v-0.3l-1-0.3-1-0.3h-1.2l-1-0.3h-0.3-0.3l-0.7 0.3h-1l-0.9 0.3-0.7 0.6-0.3 0.6-0.3 0.6-0.3 0.9v0.6 0.3 6.7 0.3h-0.3-2v2.4h0.3l1.3 0.3 1 0.9 1 1.1 0.3 1.2v0.6h2.6v-3.5-0.3h0.3 3.9v-2.7h-4.2v-6.2-0.3-0.5l0.3-0.6 0.6-0.6h0.7 0.3 0.3 1l0.6 0.3h0.4l0.6-2.1z" fill-rule="evenodd" fill="#1c1600"/><path d="m674.3 299.1v-0.3l-1-0.3-1-0.3h-1.2l-1-0.3h-0.3-0.3l-0.7 0.3h-1l-0.9 0.3-0.7 0.6-0.3 0.6-0.3 0.6-0.3 0.9v0.6 0.3 6.7 0.3h-0.3-2v2.4h0.3l1.3 0.3 1 0.9 1 1.1 0.3 1.2v0.6h2.6v-3.5-0.3h0.3 3.9v-2.7h-4.2v-6.2-0.3-0.5l0.3-0.6 0.6-0.6h0.7 0.3 0.3 1l0.6 0.3h0.4l0.6-2.1z" stroke="#1c1600" stroke-miterlimit="10" stroke-width=".8" fill="none"/><path d="m632.8 305.9-12.6 11.5-0.3 0.3-0.3 0.2h-1-0.6l-0.3-0.2-0.3-0.3-2.6-2.4 3.5-2.9h1l0.9-0.6h0.4l0.6-0.9v-1.2h-0.3l3.2-2.9h0.3 1l0.9-0.3 0.4-0.3 0.3-0.6 0.3-0.9-0.3-0.9-0.3-0.3v-0.3h-0.4l-0.6-0.3-0.6-0.2-1 0.2-0.6 0.3-0.4 0.3-0.3 0.9v0.9 0.3l-2.9 2.6v-7.3l0.7-0.3 0.3-0.6 0.3-0.9-0.3-0.9-0.3-0.3v-0.3h-0.4l-0.6-0.2-0.6-0.4-1 0.4-0.6 0.2-0.4 0.3-0.3 0.3v0.9 0.9l0.3 0.6h0.4l0.6 0.3v0.3 7.3l-0.6 0.3-0.4 0.3-0.3 0.9v0.9 0.3l-3.2 2.9-8.7-7.9-0.3-0.3-0.3-0.3v-0.6-0.9l0.3-0.3h0.3l12.9-11.8v-0.2h0.3 1 0.6 0.3l0.3 0.2 12.6 11.5 0.3 0.3 0.3 0.3v0.6 0.9l-0.3 0.3-0.3 0.3z" fill-rule="evenodd" fill="#ff291f"/><path d="m632.8 305.9-12.6 11.5-0.3 0.3-0.3 0.2h-1-0.6l-0.3-0.2-0.3-0.3-2.6-2.4 3.5-2.9h1l0.9-0.6h0.4l0.6-0.9v-1.2h-0.3l3.2-2.9h0.3 1l0.9-0.3 0.4-0.3 0.3-0.6 0.3-0.9-0.3-0.9-0.3-0.3v-0.3h-0.4l-0.6-0.3-0.6-0.2-1 0.2-0.6 0.3-0.4 0.3-0.3 0.9v0.9 0.3l-2.9 2.6v-7.3l0.7-0.3 0.3-0.6 0.3-0.9-0.3-0.9-0.3-0.3v-0.3h-0.4l-0.6-0.2-0.6-0.4-1 0.4-0.6 0.2-0.4 0.3-0.3 0.3v0.9 0.9l0.3 0.6h0.4l0.6 0.3v0.3 7.3l-0.6 0.3-0.4 0.3-0.3 0.9v0.9 0.3l-3.2 2.9-8.7-7.9-0.3-0.3-0.3-0.3v-0.6-0.9l0.3-0.3h0.3l12.9-11.8v-0.2h0.3 1 0.6 0.3l0.3 0.2 12.6 11.5 0.3 0.3 0.3 0.3v0.6 0.9l-0.3 0.3-0.3 0.3z" stroke="#ff291f" stroke-miterlimit="10" stroke-width=".8" fill="none"/><path d="m604.2 318.3h0.001v0.001h-0.001v-0.001z" fill="#fff"/><path d="m674.6 291.5h0.001v0.001h-0.001v-0.001z" fill="#fff"/><path d="m423.3 141.2 152.2 62.3" stroke="#000" stroke-miterlimit="10" stroke-width=".8" fill="none"/><path d="m586.8 208.1-13.4-0.9 3.2-7.9 10.2 8.8z" fill-rule="evenodd"/><path d="m391.2 152.8c25.7 0 45.3-17.2 45.3-39.7s-19.6-39.7-45.3-39.7-45.4 17.2-45.4 39.7 19.7 39.7 45.4 39.7zm-45.4 0zm90.8-79.4z" fill-rule="evenodd" fill="#ccc"/><path stroke-linejoin="round" d="m391.2 152.8c25.7 0 45.3-17.2 45.3-39.7s-19.6-39.7-45.3-39.7-45.4 17.2-45.4 39.7 19.7 39.7 45.4 39.7z" stroke="#000" stroke-miterlimit="10" stroke-width="0.8" fill="none"/><path stroke-linejoin="round" d="m345.8 152.8z" stroke="#000" stroke-miterlimit="10" stroke-width="0.8" fill="none"/><path stroke-linejoin="round" d="m436.6 73.4z" stroke="#000" stroke-miterlimit="10" stroke-width="0.8" fill="none"/><path d="m423.3 104.9c0-4.6-1-8.5-3.3-12.5s-5.1-6.8-9.1-9.1-7.9-3.4-12.5-3.4-8.5 1.1-12.4 3.4c-4 2.3-6.9 5.1-9.2 9.1s-3.3 7.9-3.3 12.5 1 8.5 3.3 12.5c2.3 3.9 5.2 6.8 9.2 9.1 3.9 2.3 7.8 3.3 12.4 3.3s8.5-1 12.5-3.3 6.8-5.2 9.1-9.1c2.3-4 3.3-7.9 3.3-12.5z" fill-rule="evenodd" fill="#71c9f1"/><g fill="#359946" fill-rule="evenodd"><path d="m415.6 99.2c-0.8 0.1-1.8 0-2.6 0.3-0.9 0.4-0.5 1.2-1 1.8-0.4 0.5-1.2 0.7-1.8 1-0.8 0.4-1.5 0.8-2.4 1-0.8 0.3-1.9 0-2.6-0.4-0.3-0.2-0.8-0.6-1.1-0.4s0.2 1.2-0.4 1c-0.7-0.2-1-1.2-1.5-1.1-0.6 0.1-1.1 0.3-1.7 0.2-0.6 0-1.1-0.2-1.5 0.3-0.4 0.6-0.1 1.3-0.3 1.8-0.4 1-1.6 0-2.2 0.5 0.4 0.3 0.9 1 0.9 1.6s-0.4 1-0.9 0.7c-0.3-0.2-0.3-0.6-0.5-0.9-0.4-0.4-2.5-0.5-2.6 0.3-0.2 0.7-0.4 2.1-0.1 2.8 0.3 0.5 0.6 1.2 1.3 1.4 0.6 0.2 1.4-0.1 2.1 0.1 0.6 0.2 1.3 0.4 1.9 0.1s0.7-1 0.9-1.5c0.2-0.4 0.8-0.8 0.6 0.1-0.1 0.7-0.8 1.5-0.4 2.2 0.3 0.6 1 0.8 1.4 1.3s0.1 1.2 0.4 1.7c0.3 0.6 1 0.7 1.2 1.3 0.2 0.3 0.8 1.9 1.4 1.4 0.2-0.3 0-0.5 0.4-0.3 0.2 0.1 0.8 0.6 0.4 0.8-0.3 0.1-0.8-0.1-1 0.3-0.3 0.8 1.1 1.2 1.3 1.8 0.1 0.3 0.1 0.4-0.8 0.7-0.5 0.3-1.1 1.5-1.7 1.5-0.4-0.1-0.3-0.4-0.5-0.5-0.5-0.1-0.8 0.6-1.1 0.9-0.3 0.2-1.2 0.6-1.5 0.3-0.7-0.5 1.2-3.3-0.1-3.8-0.4-0.2-1.1 1.3-1.5 1.5-0.8 0.3-2.1 0.2-2.1 1.4 0 1.1 1.5 0.8 1.9 1.6 0.3 0.7-0.8 1.8-1.4 1.6-0.1-0.1 0.1-0.6-0.1-0.7-0.3-0.4-2.5 0-3 0.1-0.8 0.3-1.6 0.5-2.4 0.9-0.7 0.4-1 1.1-1.8 0.8-0.6-0.3-1-0.6-1.5-0.8s-1.1-0.2-1.5-0.5c-0.6-0.2-0.3-1.1-0.7-1.5-0.5-0.6-1.2-0.5-1.9-0.6-0.2 0-1.2 0-1.3-0.2 0-0.3 2.7 0 2.9 0.1 0.4 0.1 0.8 0.4 1.2 0.6 0.5 0.2 1.1 0.3 1.4-0.3s0-1.3-0.2-1.9c-0.3-0.7-0.2-0.9 0-1.6 0.1-0.4 0.1-0.7-0.1-1.1-0.5-1-1.7-2.8-1.3-4 0.4-0.9 1.2-1.7 1.8-2.4 0.4-0.6 0.3-1 0.6-1.6s0.8-1.1 1.1-1.6c0.5-0.7 0.6-1.7 1.2-2.4 0.5-0.6 2.1-1.6 2.9-1.6 0.2 0 0.5 0.2 0.7 0.2 0.7-0.1 1.2-0.8 1.8-1.1s1.4 0 1.9-0.5c0.6-0.6 0.7-1.5 1.6-1.8 0.5-0.1 1.1 0.2 1.5-0.1 1.3-0.6 0.4-2.1 0-2.9s-0.8-1.9-0.7-2.8c0.2-0.9 0.9-1.4 1.3-2.1 0.4-0.6 0.5-1.4 1.1-1.8 0.6-0.3 1.5-0.3 1.9-0.9 0.3-0.6-0.5-1.6-0.6-2.3-0.2-0.7-0.5-1.5-0.7-2.3-0.2-0.7-0.6-1.3-1-2-0.3-0.6-1.1-2.8 0.1-2.7 1.7 0.1 2.3 2.3 3.8 2.9 0.3 0.1 2.8 1.9 3.2 2.3s1.5 0.8 1.7 1.2c0.1 0.5 0.7 0.8 0.9 1.6 0.2 0.9 1.6 1.1 2.2 1.7 0.8 0.9 1.2 2.1 1.7 3.1 0.3 0.9 1.2 1.6 1.4 2.6 0.3 1.3-0.7 1.5-1.9 1.6z"/><path d="m402.3 107.7c-0.2 0-0.4 0-0.6 0.1-0.3 0.1-0.6 0.3-0.9 0.4s-0.6 0.2-0.9 0.2h-0.5c-0.2-0.1-0.4-0.1-0.5-0.2-0.1 0-0.2-0.1-0.2-0.1 0.1-0.2 0.6-0.1 0.7-0.1 0.5 0 1.1 0 1.5-0.3l0.3-0.3c0-0.1 0.1-0.2 0.2-0.2 0.1-0.1 0.2 0 0.3 0 0.1 0.1 0.3 0.1 0.4 0.2 0.1 0 0.2 0 0.3 0.1s0 0.1-0.1 0.2z"/><path d="m404.5 107.3c-0.2 0-0.5-0.3-0.9-0.1-0.3 0.1-0.4 0.3-0.6 0.3-0.1 0.1-0.4 0-0.2-0.2 0.3-0.3 0.5-0.5 0.9-0.7 0.2-0.1 0.8 0 1 0.1 0.4 0.3 0.2 0.5-0.2 0.6z"/><path d="m406.3 119.6c-0.1 0.1-0.5 0.9-0.8 0.2s1-0.9 1.2-0.8c0.1 0.2-0.4 0.6-0.4 0.6z"/><path d="m400 125.6c-0.2 0.1-2.2 0.9-2.3 0.3 0-0.4 0.8-0.5 1-0.5 0.4-0.1 1.1-0.4 1.2-0.9 0-0.2-0.4-0.6 0.2-0.6 0.3 0 0.8-0.2 0.8-0.2s0.3-0.1 0.5-0.1c0.6 0.1-0.4 1.1-0.6 1.2-0.3 0.4-0.4 0.7-0.8 0.8z"/><path d="m394.3 126.3c-0.2 0.1-0.7 0.2-0.7 0.1-0.4-0.2-0.5-0.3 0-0.5 0.4-0.2 0.8-0.4 1.3-0.5 0.2-0.1 0.8-0.1 0.5 0.3-0.2 0.4-0.8 0.5-1.1 0.6z"/><path d="m398.7 127.8c-0.2 0.2-0.6 0-0.8-0.1-0.5-0.2-0.9-0.1-1.4-0.2-0.1-0.1-0.3-0.2-0.4-0.3 0-0.2 0.3-0.3 0.5-0.3 0.2-0.1 0.4-0.3 0.6-0.3l0.6 0.3c0.2 0 0.4 0 0.6 0.2s0.5 0.5 0.3 0.7z"/><path d="m405.4 124.8v0.7c-0.3 1.1-1.7 1.8-2.7 2.2-0.4 0.1-0.8 0.2-1.3 0.3-0.5 0-1.2 0-1.7-0.3-0.2-0.1-0.3-0.2-0.3-0.5 0.1-0.4 0.8-0.3 1.1-0.4 0.8-0.2 1.5-0.5 2.1-1.1 0.9-0.8 1.7-1.4 2.9-1.9 0.2-0.1 0.5-0.2 0.4 0.1-0.1 0.5-0.5 0.4-0.5 0.9z"/><path d="m418.4 118.6c0.1-0.7 0.1-1.4 0.4-2.1 0.1-0.3 0.2-0.6 0.4-1 0.2-0.7 0.1-1.5 0.2-2.3 0.2-0.8 0.7-1.4 0.9-2.2 0.2-0.6 0.1-1.4 0.4-2.1 0.2-0.4 0.5-0.6 0.7-1 0.3-0.4 0.5-1.6 1.1-1.8 0.4-0.1 0.4 0.9 0.4 1.1 0.1 0.2 0.2 0.5 0.2 0.8-0.5 4.4-2.2 8.5-4.7 11.8v-1.2z"/><path d="m412.8 125c0.1-0.2 0.2-0.5 0-0.6-0.2-0.2-0.6 0.1-0.8 0.3-0.1 0.1-0.4 0.4-0.6 0.3-0.3-0.2 0.8-1 1-1.1 0.1-0.2 0.2-0.4 0.4-0.5 0.3-0.3 0.4 0.1 0.7 0.2 0.3 0.3 0.7-0.2 0.8-0.5 0.3-0.4 0.5-0.8 0.8-1.2s0.7-0.9 0.9-1.3c0.4-0.5 0.6-1.1 1-1.5 0.3-0.3 0.8-0.5 0.9-0.4 0.2 0.2-0.1 0.5-0.2 0.6-0.2 0.5-0.4 0.9-0.7 1.3-0.2 0.4-0.4 1.4-0.4 1.4-1.2 1.2-2.5 2.3-3.8 3.3v-0.3z"/><path d="m406.5 128.1c0.5-0.4 1.1-0.7 1.7-0.9 0.4-0.2 0.5-0.3 0.9-0.6 0.6-0.3 1.1-0.5 1.6-0.7 0.2-0.1 0.6-0.3 0.8-0.2 0.1 0.1 0.1 0.2 0.1 0.4-1.8 1.1-3.6 1.9-5.6 2.6 0-0.1 0.3-0.5 0.5-0.6z"/></g><g fill="#ccc" fill-rule="evenodd"><path d="m373.5 96.4v-11.8c-3-1.4-7-1.7-10 0.5-2.6 2-4 6.9-3.2 11.5 0.9 4.6 3.5 7 6.3 7.8s5.9-0.1 6.8-0.7l-1.1-5.3c-1.2 0.7-2.3 1-3.7 0.8-1.2-0.2-1.9-1.4-2.3-2.8h7.2zm-7.2-5.2v5.2c-0.3-1.7-0.3-3.8 0-5.2zm0.4-1.2c0.7-1.2 1.3-1.1 1.3-1.1v2.3h-1.7c0.2-0.5 0.3-0.9 0.4-1.2z"/><path d="m385.1 103.4c-2.6 1.6-7.3 1.5-10 0.6l0.1-20.1c2.6-0.4 7.3-0.7 9.8 1.1 2.7 2 3.7 5.4 3.7 9.4-0.1 4.1-1.1 7.3-3.6 9zm-2.4-9.3c-0.1-4.8-1.7-5.3-1.7-5.3v10.7s1.8-0.4 1.7-5.4z"/><path d="m392.3 104.6-4.5-20.9h5.7l0.9 4.2h1.5l0.8-4.2h5.8l-4.1 20.8-6.1 0.1z"/><path d="m403.2 104.6v-20.9h10.6v5.3h-4.8v15.6h-5.8z"/></g><g fill-rule="evenodd"><path d="m372.4 85.3c-0.7-0.3-2.5-0.6-3.8-0.6-2.1 0-3.8 0.5-5 1.8-1.6 1.6-2.5 4.3-2.4 7.5 0.1 6.8 4 9.6 7.9 9.6 1.4 0 2.5-0.2 3.1-0.5l-0.7-3.1c-0.5 0.2-1.2 0.4-2.1 0.4-2.5 0-4.4-1.7-4.4-6.6 0-4.5 1.7-6.1 3.4-6.1 0.3 0 0.6 0 0.7 0.1v4.5h-1.6v3h4.9v-10z"/><path d="m376.3 103.2c0.9 0.2 2.2 0.4 3.7 0.4 2.3 0 4-0.6 5.1-1.7 1.6-1.5 2.5-3.9 2.5-7.5 0-3.8-1-6.5-2.6-7.9-1.3-1.3-3.1-1.8-5.7-1.8-1.2 0-2.3 0.1-3 0.2v18.3zm3.6-15.5c0.2-0.1 0.5-0.1 0.7-0.1 1.7 0 3.2 1.8 3.2 6.9 0 3.8-1 6.1-3.2 6.1h-0.7v-12.9z"/><path d="m393.5 89.1-0.8-4.3h-3.6l4.1 18.7h4.3l3.7-18.7h-3.6l-0.7 4.3h-3.4zm3 2.8-0.6 3.9c-0.2 1.1-0.4 3-0.6 4.2h-0.1c-0.2-1.2-0.5-3.2-0.6-4.2l-0.8-3.9h2.7z"/><path d="m404.3 103.5h3.6v-15.6h4.8v-3.1h-8.4v18.7z"/></g><g fill="#ed1e3a" fill-rule="evenodd"><path d="m380.3 130.7-0.3-0.6 20.7-7.7c0 0.3 0.1 0.5 0.2 0.7l-20.6 7.6z"/><path d="m380 130-3.7-21.7c0.2-0.2 0.5-0.3 0.7-0.4l3.8 22-0.8 0.1z"/><path d="m387.2 118c-7.4-4.6-10.2-9-10.7-9.8l0.6-0.3c1.1 1.8 4.2 5.8 10.4 9.6 5.7 3.5 10.7 4.5 13.1 4.9 0 0.2 0.1 0.3 0.2 0.5-1.6-0.2-7.5-1.1-13.6-4.9z"/></g><g fill-rule="evenodd"><path d="m389.3 144.2-9-5.7-1.5 5.7 8.9 5.7 1.6-5.7z" fill="#666667"/><path d="m379.5 137.2s-1.4-0.3-2.5-1c-1.2-0.8-2.2-1.8-2.2-1.8l-3.8 6.4s0.7 1.3 1.9 2.1c1.2 0.7 2.9 0.7 2.9 0.7l3.7-6.4z"/><path d="m377 134.8c2.1 1.4 4.5 2.2 5.5 1.9-0.7 0.2-3.1 1.2-5.6-0.3-2.6-1.5-2.9-3.8-2.9-4.7 0.1 0.8 1.2 2 3 3.1z" fill="#666667"/><path d="m382.8 136v0.3 0.1l-0.1 0.1-0.1 0.1c-0.1 0.1-0.4 0.1-0.6 0.2h-0.2c-0.1 0-0.2-0.1-0.3-0.1h-0.1-0.1-0.2v-0.1h-0.2c-1.1-0.3-2.6-0.9-3.9-1.8-1.4-0.9-2.4-1.8-2.8-2.5 0-0.1 0-0.1-0.1-0.1v-0.2c-0.1-0.2-0.1-0.3-0.1-0.4v-0.1c0-0.1 0.1-0.3 0.2-0.4 0.9-0.5 3.4 0.3 5.7 1.8l0.2 0.2c1.6 1 2.6 2.2 2.7 2.9z" fill="#989898"/></g><g fill-rule="evenodd"><path d="m378.3 131.9-1.9 2 0.2 0.2 3.9-3.9-0.2-0.2-2 1.9z"/><path d="m380.2 132.8 0.7-2.7h-0.3l-1.4 5.3 0.3 0.1 0.7-2.7z"/><path d="m380.3 130.8-2.5 4.5c-0.1 0-0.2-0.1-0.2-0.1l2.4-4.5 0.3 0.1z"/><path d="m381.2 130.3c0-0.1 0-0.2-0.1-0.4-0.1-0.1-0.2-0.2-0.3-0.2-0.1-0.1-0.2-0.1-0.3-0.1-0.2 0-0.3 0-0.4 0.1-0.1 0-0.2 0.1-0.3 0.2 0 0.2-0.1 0.3-0.1 0.4 0 0.2 0.1 0.3 0.1 0.4l0.3 0.3c0.1 0 0.2 0.1 0.4 0.1 0.1 0 0.2-0.1 0.3-0.1l0.3-0.3c0.1-0.1 0.1-0.2 0.1-0.4z"/></g><g fill-rule="evenodd"><path d="m372.3 133.2-9.3-6-1.5 5.8 9.3 5.9 1.5-5.7z" fill="#666667"/><path d="m370.9 135.7 0.2-0.4 2.6 1.7c0 0.1-0.2 0.4-0.2 0.4l-2.6-1.7z"/><path d="m377.5 140 0.3-0.4 2.6 1.7l-0.2 0.4-2.7-1.7z"/></g></g></g></svg>
